<?xml version="1.0" encoding="utf-8"?>
<!-- Generator: Adobe Illustrator 23.1.0, SVG Export Plug-In . SVG Version: 6.00 Build 0)  -->
<svg version="1.1" id="Layer_1" xmlns="http://www.w3.org/2000/svg" xmlns:xlink="http://www.w3.org/1999/xlink" x="0px" y="0px"
	 viewBox="0 0 66.3 46.5" style="enable-background:new 0 0 66.3 46.5;" xml:space="preserve">
<style type="text/css">
	.st0{fill:#4D4C4C;}
	.st1{fill:#676767;}
	.st2{fill:#303030;}
	.st3{opacity:0.4;fill:#E8F6F9;enable-background:new    ;}
	.st4{fill:none;stroke:#FFFFFF;stroke-width:0.1847;stroke-miterlimit:10;}
</style>
<g>
	<g>
		<path class="st0" d="M56.1,45.5L56.1,45.5l-1,0.3c-1,0.3-2.1-0.3-2.4-1.3l-3.5-10.9c0,0-2-5.6-8-10.2S36.4,18,8.2,4.2l1.4-2.7
			c0,0,37,14.4,42.9,29.1c3.1,7.6,4.3,11.2,4.7,13l0,0C57.2,43.8,57.2,45.2,56.1,45.5z"/>
		<path class="st1" d="M0.1,16.7L0.1,16.7l0.4,1c0.3,1,1.4,1.6,2.5,1.2l10.9-3.4c0,0,5.7-1.6,13,0.6c7.3,2.3,7.2,0.6,34.8,15.6
			l1.4-2.7c0,0-33.2-21.7-48.6-18c-8,1.9-11.6,3.1-13.3,3.7l0,0C0.9,14.8-0.2,15.6,0.1,16.7z"/>
		<path class="st2" d="M65.1,30.6c-6.5-5.8-28.6-14.5-28.6-14.5l-1-0.5c0,0-20-13-28.5-14.9C5.9,0.4,4.8,1,4.4,2
			C3.7,3.5,2.8,5.8,3.5,6.2c1.1,0.7,1.1,2,0.8,4S-1.2,22,12.4,29c0,0,9.6,5.9,16.1-3.4c0.2-0.3,0.4-0.6,0.5-0.9
			c0.9-1.6,3.8-6.9,4.9-6.4l1,0.5c1.1,0.6-1.5,6-2.3,7.7c-0.2,0.3-0.3,0.6-0.4,1c-3.8,10.7,6.6,15.1,6.6,15.1
			c13.6,7,18.6-2.9,20-4.3s2.5-2.1,3.7-1.7c0.8,0.3,2.1-1.7,3-3.1C66.1,32.6,65.9,31.3,65.1,30.6z M27.1,23.9
			c-5.7,7.9-14.6,3.9-18.7,0.4c-4.1-3.6-3.3-9.4-1.3-15c2-5.5,9.3-1.7,9.3-1.7l11.3,6.1C32.8,17.2,27.1,23.9,27.1,23.9z M58,35.5
			c-3.3,4.8-7.6,8.9-12.9,7.7c-5.3-1.3-13.6-6.2-10.6-15.5c0,0,2.1-8.6,8-6.3L54,27C54,27,61.3,30.7,58,35.5z"/>
		<path class="st3" d="M16.4,7.6c0,0-7.3-3.8-9.3,1.7s-2.8,11.4,1.3,15s13,7.5,18.7-0.4c0,0,5.8-6.6,0.5-10.2L16.4,7.6z"/>
		<path class="st3" d="M54,27c0,0,7.4,3.7,4,8.6c-3.3,4.8-7.6,8.9-12.9,7.7c-5.3-1.3-13.6-6.2-10.6-15.5c0,0,2.1-8.6,7.9-6.3L54,27z
			"/>
		<path class="st4" d="M36.7,26.9c0,0-4.3,7.5,3.9,13"/>
		<line class="st4" x1="20.9" y1="14.1" x2="10.2" y2="18.9"/>
		<line class="st4" x1="24.8" y1="14.5" x2="14.1" y2="19.3"/>
		<line class="st4" x1="52.9" y1="30.6" x2="42.3" y2="35.4"/>
		<line class="st4" x1="55.9" y1="31.2" x2="47.6" y2="34.9"/>
		<path class="st4" d="M16.9,9.2c0,0-4.4-3-8.1-0.9"/>
	</g>
</g>
</svg>
