<?xml version="1.0" encoding="utf-8"?>
<!-- Generator: Adobe Illustrator 23.1.0, SVG Export Plug-In . SVG Version: 6.00 Build 0)  -->
<svg version="1.1" id="Layer_1" xmlns="http://www.w3.org/2000/svg" xmlns:xlink="http://www.w3.org/1999/xlink" x="0px" y="0px"
	 viewBox="0 0 41.6 41.7" style="enable-background:new 0 0 41.6 41.7;" xml:space="preserve">
<style type="text/css">
	.st0{fill:#EDECEC;}
	.st1{fill:#CECECD;}
	.st2{fill:#FFFFFF;}
	.st3{fill:#A15B2B;}
	.st4{fill:#94532C;}
</style>
<path class="st0" d="M40.9,20.9c0,0.5,0,1.1-0.1,1.6C40,32.8,31.4,40.9,20.9,40.9c-11,0-20-9-20-20s9-20,20-20
	c10.9,0,19.8,8.7,20,19.6C40.9,20.6,40.9,20.8,40.9,20.9z"/>
<path class="st1" d="M40.9,20.9c0,0.5,0,1.1-0.1,1.6c-0.1,0-0.2,0.1-0.3,0.1h-7.2v-2.2h7.2c0.1,0,0.3,0,0.4,0.1
	C40.9,20.6,40.9,20.8,40.9,20.9z"/>
<circle class="st1" cx="21.9" cy="22" r="14.6"/>
<circle class="st2" cx="20.9" cy="20.9" r="14.6"/>
<path class="st2" d="M40.5,22h-7.2v-2.2h7.2c0.6,0,1.1,0.5,1.1,1.1l0,0C41.6,21.5,41.1,22,40.5,22z"/>
<circle class="st3" cx="20.9" cy="20.9" r="13.5"/>
<path class="st4" d="M31.9,19.5c0,0.4-0.2,0.9-0.6,0.9c-0.2,0-0.4-0.2-0.5-0.4c-0.1-0.2,0-0.5,0-0.7c0.1-1.2-0.4-2.4-1.3-3.3
	c-0.7-0.7-1.6-1.1-2.2-1.8c-0.1-0.2-0.3-0.4-0.1-0.6c0-0.1,0.1-0.1,0.2-0.2c0.2-0.2,0.1-0.6-0.1-0.8c-0.3-0.4-0.7-0.6-1.1-0.9
	c-0.4-0.3-0.7-0.7-0.7-1.2c0-0.4,1.9,0.8,2.1,0.9c0.7,0.4,1.3,0.8,1.8,1.4c1.1,1.1,1.9,2.5,2.3,4C31.8,17.7,31.9,18.6,31.9,19.5z"/>
<path class="st4" d="M10.5,15.8c-0.2,0.2-0.5,0.3-0.7,0.5c-0.3,0.3-0.4,0.7-0.4,1.1C9.1,19,8.9,20.6,9,22.2c0.2,1.6,0.7,3.2,1.9,4.3
	c0.6,0.6,1.4,1,2.2,0.7s1-1.4,0.8-2.2c-0.2-0.8-0.6-1.5-0.9-2.4c-0.3-1.4,0.1-2.7,0.5-4c0.2-0.7,0.4-1.4,0.6-2.2
	c0.1-0.9,0-1.2-0.4-1.8c-0.3-0.6-0.5-2.8-1.7-1.8C11.1,13.5,11.4,15.1,10.5,15.8z"/>
<path class="st4" d="M15.7,29.3c0.3,1.1,1.4,2,2.5,2.3c0.5,0.2,1.1,0.2,1.7,0.1c0.6-0.1,1.2-0.5,1.8-0.6c1.1-0.3,2.3-0.1,3.5-0.2
	c1.5-0.1,2.9-0.9,3.9-2.1c1-1.2,1.4-2.7,1.2-4.2c-0.1-0.9-0.6-1.8-1.3-2.4s-1.8-0.8-2.6-0.4c-1.2,0.6-1.6,2-2.4,3.1
	c-1.2,1.7-3.3,2.4-5.3,2.1C16.9,26.7,15,26.8,15.7,29.3z"/>
</svg>
