<?xml version="1.0" encoding="utf-8"?>
<!-- Generator: Adobe Illustrator 23.1.0, SVG Export Plug-In . SVG Version: 6.00 Build 0)  -->
<svg version="1.1" id="Layer_1" xmlns="http://www.w3.org/2000/svg" xmlns:xlink="http://www.w3.org/1999/xlink" x="0px" y="0px"
	 viewBox="0 0 841.9 577.3" style="enable-background:new 0 0 841.9 577.3;" xml:space="preserve">
<style type="text/css">
	.st0{fill:#00D7FF;}
</style>
<g>
	<g id="그룹_60" transform="translate(7066.438 -160.745)">
		<circle id="타원_13" class="st0" cx="-6432.6" cy="369.9" r="4"/>
	</g>
	<g id="그룹_52" transform="translate(7222.147 -504.131) rotate(8)">
		<path id="패스_39" class="st0" d="M-6412.1,1619.5c-1.4,0-2.7-0.8-3.4-2c-1.1-1.9-0.4-4.3,1.5-5.4c0,0,0,0,0,0l79.7-44.4
			c1.9-1.1,4.3-0.4,5.4,1.5c1.1,1.9,0.4,4.3-1.5,5.4c0,0,0,0,0,0l-79.7,44.4C-6410.7,1619.3-6411.4,1619.5-6412.1,1619.5z"/>
	</g>
</g>
<path id="패스_37_1_" class="st0" d="M841.9,577.3V213.8L0,514.9v62.4L841.9,577.3z"/>
<g>
	<path class="st0" d="M19.9,418.3c2.8-1.2,4.2-4.4,3-7.3s-4.4-4.2-7.3-3L0,414.3v12L19.9,418.3C19.8,418.3,19.9,418.3,19.9,418.3z"
		/>
	<path class="st0" d="M86.2,431.5c-4-9.7-15.1-14.2-24.8-10.2L0,446.1v40.9l75.7-30.6c0.1,0,0.2-0.1,0.3-0.1
		C85.7,452.2,90.2,441.1,86.2,431.5z"/>
</g>
<g>
	<path class="st0" d="M742.3,195.1c-5.5,2-9.5,6.8-10.5,12.5c-1.6,8.9,4.4,17.4,13.3,18.9c2.8,0.5,5.7,0.2,8.4-0.7l88.4-32.2v-34.8
		L742.3,195.1z"/>
</g>
</svg>
