<?xml version="1.0" encoding="utf-8"?>
<!-- Generator: Adobe Illustrator 23.1.0, SVG Export Plug-In . SVG Version: 6.00 Build 0)  -->
<svg version="1.1" id="Layer_1" xmlns="http://www.w3.org/2000/svg" xmlns:xlink="http://www.w3.org/1999/xlink" x="0px" y="0px"
	 viewBox="0 0 389 505.5" style="enable-background:new 0 0 389 505.5;" xml:space="preserve">
<style type="text/css">
	.st0{fill:none;stroke:#D56033;stroke-width:0.7953;stroke-miterlimit:10;}
	
		.st1{fill:none;stroke:#FFFFFF;stroke-width:3;stroke-linecap:round;stroke-linejoin:round;stroke-miterlimit:10;stroke-dasharray:2,8;}
	.st2{fill:none;stroke:#FFFFFF;stroke-width:3;stroke-linecap:round;stroke-linejoin:round;stroke-miterlimit:10;}
	.st3{fill:#B7DAE5;}
	.st4{fill:#FFFFFF;}
</style>
<g>
	<path class="st0" d="M389,311.7"/>
	<path class="st1" d="M100.8,369c13.9-3.6,28.5,4.2,38.2,14.7c9.7,10.6,15.9,23.8,23.9,35.7c17.4,25.7,44.2,44.9,74.1,53.2
		c20.1,5.6,43.6,5.7,59.7-7.6c21.9-17.9,20.4-54.5,2.4-76.3c-18-21.8-47.4-31-75.6-32.9c-9.5-0.6-20.3-1-26.6-8.2
		c-10-11.2-1.9-29.8-8.2-43.3c-11.6-24.7-56.6-12.2-70.2-35.9c-7-12.2-0.8-28.5,10.2-37.2c11-8.7,25.5-11.4,39.4-13
		c33-3.9,66.5-3.2,99.3-8.2c32.9-5,66.1-16.4,89.2-40.3c23.1-23.9,33.2-62.4,17.3-91.5c-11.8-21.6-37.1-34.9-61.6-32.5"/>
	<g>
		<path class="st2" d="M70.9,339h-42c-10.5,0-19,8.5-19,19v26.8c0,10.5,8.5,19,19,19h8.7l-12,21.3l39-21.3h6.3c10.5,0,19-8.5,19-19
			V358C89.9,347.5,81.4,339,70.9,339z"/>
		<circle class="st2" cx="29.8" cy="371.8" r="4.5"/>
		<circle class="st2" cx="51.3" cy="371.8" r="4.5"/>
		<circle class="st2" cx="72.3" cy="371.8" r="4.5"/>
	</g>
	<g>
		<path class="st2" d="M290.8,257h-37.1c-9.3,0-16.8,7.5-16.8,16.8v23.7c0,9.3,7.5,16.8,16.8,16.8h7.7l-10.6,18.8l34.4-18.8h5.6
			c9.3,0,16.8-7.5,16.8-16.8v-23.7C307.6,264.5,300,257,290.8,257z"/>
		<path class="st2" d="M258.4,286c0,2.2-1.8,4-4,4c-2.2,0-4-1.8-4-4c0-2.2,1.8-4,4-4C256.6,282,258.4,283.8,258.4,286z"/>
		<path class="st2" d="M277.4,286c0,2.2-1.8,4-4,4c-2.2,0-4-1.8-4-4c0-2.2,1.8-4,4-4C275.6,282,277.4,283.8,277.4,286z"/>
		<path class="st2" d="M295.9,286c0,2.2-1.8,4-4,4c-2.2,0-4-1.8-4-4c0-2.2,1.8-4,4-4C294.2,282,295.9,283.8,295.9,286z"/>
	</g>
	<g>
		<path class="st2" d="M247.8,107.2H285c9.3,0,16.8,7.5,16.8,16.8v23.7c0,9.3-7.5,16.8-16.8,16.8h-7.7l10.6,18.8l-34.4-18.8h-5.6
			c-9.3,0-16.8-7.5-16.8-16.8V124C231.1,114.7,238.6,107.2,247.8,107.2z"/>
		<path class="st2" d="M280.2,136.2c0,2.2,1.8,4,4,4c2.2,0,4-1.8,4-4c0-2.2-1.8-4-4-4C282,132.2,280.2,134,280.2,136.2z"/>
		<circle class="st2" cx="265.2" cy="136.2" r="4"/>
		<path class="st2" d="M242.7,136.2c0,2.2,1.8,4,4,4c2.2,0,4-1.8,4-4c0-2.2-1.8-4-4-4C244.5,132.2,242.7,134,242.7,136.2z"/>
	</g>
	<g>
		<g>
			
				<image style="overflow:visible;opacity:0.1;" width="437" height="437" xlink:href="D3284F8D.png"  transform="matrix(0.24 0 0 0.24 128.422 172.56)">
			</image>
			<g>
				
					<ellipse transform="matrix(0.1583 -0.9874 0.9874 0.1583 -68.9923 354.8859)" class="st3" cx="173.7" cy="217.9" rx="37.2" ry="37.2"/>
			</g>
		</g>
	</g>
	<circle class="st4" cx="173.7" cy="204.9" r="7.7"/>
	<path class="st4" d="M192,234.2h-36.6c0-10.1,8.2-18.3,18.3-18.3C183.8,215.9,192,224.1,192,234.2z"/>
	<g>
		<g>
			
				<image style="overflow:visible;opacity:0.1;" width="436" height="436" xlink:href="D3284F8F.png"  transform="matrix(0.24 0 0 0.24 183.862 418.32)">
			</image>
			<g>
				<circle class="st3" cx="229.2" cy="463.5" r="37.2"/>
			</g>
		</g>
	</g>
	<circle class="st4" cx="229.2" cy="450.5" r="7.7"/>
	<path class="st4" d="M247.5,479.8h-36.6c0-10.1,8.2-18.3,18.3-18.3C239.3,461.5,247.5,469.7,247.5,479.8z"/>
	<g>
		<g>
			
				<image style="overflow:visible;opacity:0.1;" width="437" height="436" xlink:href="D3284F8A.png"  transform="matrix(0.24 0 0 0.24 245.302 0)">
			</image>
			<g>
				<circle class="st3" cx="290.7" cy="45.4" r="37.2"/>
			</g>
		</g>
	</g>
	<circle class="st4" cx="290.7" cy="32.4" r="7.7"/>
	<path class="st4" d="M309,61.7h-36.6c0-10.1,8.2-18.3,18.3-18.3C300.8,43.4,309,51.6,309,61.7z"/>
</g>
</svg>
