<?xml version="1.0" encoding="utf-8"?>
<!-- Generator: Adobe Illustrator 23.1.0, SVG Export Plug-In . SVG Version: 6.00 Build 0)  -->
<svg version="1.1" id="Layer_1" xmlns="http://www.w3.org/2000/svg" xmlns:xlink="http://www.w3.org/1999/xlink" x="0px" y="0px"
	 viewBox="0 0 323.1 324.6" style="enable-background:new 0 0 323.1 324.6;" xml:space="preserve">
<style type="text/css">
	.st0{fill:url(#SVGID_1_);}
	.st1{fill:url(#SVGID_2_);}
	.st2{fill:url(#SVGID_3_);}
	.st3{fill:url(#SVGID_4_);}
	.st4{fill:url(#SVGID_5_);}
	
		.st5{fill:none;stroke:#FFFFFF;stroke-width:3;stroke-linecap:round;stroke-linejoin:round;stroke-miterlimit:10;stroke-dasharray:2,8;}
</style>
<g>
	<linearGradient id="SVGID_1_" gradientUnits="userSpaceOnUse" x1="35.7965" y1="172.4056" x2="20.0927" y2="223.2859">
		<stop  offset="0" style="stop-color:#D764A6"/>
		<stop  offset="1" style="stop-color:#F2674A"/>
	</linearGradient>
	<path class="st0" d="M42.7,176.4c-5.5,0-10.2,2.9-12.8,7.3c-2.6-4.4-7.4-7.3-12.8-7.3c-8.3,0-15,6.7-15,15
		c0,18.7,27.8,32.8,27.8,32.8s27.8-13.8,27.8-32.8C57.7,183.1,51,176.4,42.7,176.4z"/>
	<linearGradient id="SVGID_2_" gradientUnits="userSpaceOnUse" x1="103.9634" y1="66.127" x2="88.2596" y2="117.0072">
		<stop  offset="0" style="stop-color:#D764A6"/>
		<stop  offset="1" style="stop-color:#F2674A"/>
	</linearGradient>
	<path class="st1" d="M110.8,70.1c-5.5,0-10.2,2.9-12.8,7.3c-2.6-4.4-7.4-7.3-12.8-7.3c-8.3,0-15,6.7-15,15
		c0,18.7,27.8,32.8,27.8,32.8s27.8-13.8,27.8-32.8C125.8,76.8,119.1,70.1,110.8,70.1z"/>
	<linearGradient id="SVGID_3_" gradientUnits="userSpaceOnUse" x1="163.1309" y1="25.1111" x2="151.6088" y2="62.4428">
		<stop  offset="0" style="stop-color:#D764A6"/>
		<stop  offset="1" style="stop-color:#F2674A"/>
	</linearGradient>
	<path class="st2" d="M168.2,28c-4,0-7.5,2.1-9.4,5.3c-1.9-3.2-5.4-5.3-9.4-5.3c-6.1,0-11,4.9-11,11c0,13.7,20.4,24.1,20.4,24.1
		s20.4-10.2,20.4-24.1C179.2,32.9,174.3,28,168.2,28z"/>
	<linearGradient id="SVGID_4_" gradientUnits="userSpaceOnUse" x1="189.3746" y1="141.2319" x2="178.591" y2="176.1708">
		<stop  offset="0" style="stop-color:#D764A6"/>
		<stop  offset="1" style="stop-color:#F2674A"/>
	</linearGradient>
	<path class="st3" d="M194.1,143.9c-3.7,0-7,2-8.8,5c-1.8-3-5.1-5-8.8-5c-5.7,0-10.3,4.6-10.3,10.3c0,12.9,19.1,22.6,19.1,22.6
		s19.1-9.5,19.1-22.6C204.4,148.6,199.8,143.9,194.1,143.9z"/>
	<linearGradient id="SVGID_5_" gradientUnits="userSpaceOnUse" x1="242.4451" y1="-0.4527" x2="232.7017" y2="31.1161">
		<stop  offset="0" style="stop-color:#D764A6"/>
		<stop  offset="1" style="stop-color:#F2674A"/>
	</linearGradient>
	<path class="st4" d="M246.7,2c-3.4,0-6.3,1.8-8,4.5c-1.6-2.7-4.6-4.5-8-4.5c-5.1,0-9.3,4.2-9.3,9.3c0,11.6,17.3,20.4,17.3,20.4
		S256,23.1,256,11.3C256,6.2,251.9,2,246.7,2z"/>
	<path class="st5" d="M125,238.9c13.4-10.3,31.3-14.5,47.9-11.2c16.6,3.4,31.5,14.2,39.8,28.9c2.7,4.7,4.7,9.9,5.2,15.4
		c0.6,7.4-1.6,14.7-4.3,21.6c-2.8,7.2-7.3,15.2-14.9,16.4c-9.8,1.5-17.5-11.2-13.7-20.3c3.9-9.1,15.3-13.2,25-11.4
		c9.8,1.8,18,8.1,25.2,15c7.2,6.8,13.8,14.4,22.2,19.8c18.2,11.6,43.9,10.1,60.5-3.7"/>
</g>
</svg>
