<?xml version="1.0" encoding="utf-8"?>
<!-- Generator: Adobe Illustrator 23.1.0, SVG Export Plug-In . SVG Version: 6.00 Build 0)  -->
<svg version="1.1" id="Layer_1" xmlns="http://www.w3.org/2000/svg" xmlns:xlink="http://www.w3.org/1999/xlink" x="0px" y="0px"
	 viewBox="0 0 243.6 229.9" style="enable-background:new 0 0 243.6 229.9;" xml:space="preserve">
<style type="text/css">
	.st0{fill:#FCD5D2;}
</style>
<path class="st0" d="M0.1,10.9C0.3,7.2,0.9,3.6,1.8,0h241.8v229.9c-4.2-0.8-8.2-2.1-11.2-2.8c-21.6-5.2-42.1-14.9-60-28.1
	c-19.4-14.4-35.7-32.9-46.9-54.4c-7.9-15.2-13.4-31.7-22.8-46c-9.9-15.2-24-27.6-40.4-35.5c-15.8-7.6-33.7-11.2-48-21.5
	c-4.4-3.2-8.5-7.1-11-12C0.4,23.9-0.3,17.3,0.1,10.9z"/>
</svg>
