<?xml version="1.0" encoding="utf-8"?>
<!-- Generator: Adobe Illustrator 23.1.0, SVG Export Plug-In . SVG Version: 6.00 Build 0)  -->
<svg version="1.1" id="Layer_1" xmlns="http://www.w3.org/2000/svg" xmlns:xlink="http://www.w3.org/1999/xlink" x="0px" y="0px"
	 viewBox="0 0 134.7 113.3" style="enable-background:new 0 0 134.7 113.3;" xml:space="preserve">
<style type="text/css">
	.st0{fill:#FFFFFF;}
</style>
<g>
	<path class="st0" d="M75.3,44.6c-2.9,0-5.3,2.4-5.3,5.3c0,2.9,2.4,5.3,5.3,5.3c2.9,0,5.3-2.4,5.3-5.3C80.6,47,78.2,44.6,75.3,44.6z
		"/>
	<path class="st0" d="M107,44.6c-2.9,0-5.3,2.4-5.3,5.3c0,2.9,2.4,5.3,5.3,5.3c2.9,0,5.3-2.4,5.3-5.3C112.3,47,110,44.6,107,44.6z"
		/>
	<path class="st0" d="M28.1,44.6c-2.9,0-5.3,2.4-5.3,5.3c0,2.9,2.4,5.3,5.3,5.3c2.9,0,5.3-2.4,5.3-5.3C33.4,47,31,44.6,28.1,44.6z"
		/>
	<path class="st0" d="M113.4,0H21.3C9.5,0,0,9.6,0,21.3V72c0,11.8,9.5,21.3,21.3,21.3H53l10.8,17.6c0,0,0.1,0.2,0.3,0.5
		c0.6,1.1,1.8,1.8,3.2,1.8c1.3,0,2.5-0.7,3.1-1.8c0.3-0.3,0.4-0.5,0.4-0.5l10.8-17.6h31.7c11.7,0,21.3-9.6,21.3-21.3V21.3
		C134.6,9.6,125.1,0,113.4,0z M29.9,62.5c-5,0-6.9-3.6-6.9-3.6v2.7h-8.3V27.3h8.2v13.1c3.3-3.3,7-3.3,7-3.3
		c11.2,0,11.6,12.5,11.6,12.5C41.5,62,29.9,62.5,29.9,62.5z M55.9,39.4v22.2h-7.9V41.3c0-7-3.8-6.8-3.8-6.8v-8
		C56.2,26.5,55.9,39.4,55.9,39.4z M89.2,49.9c0,12.5-13.9,12.6-13.9,12.6c-14.1,0-13.6-12.6-13.6-12.6c0-12.7,13.6-12.7,13.6-12.7
		C89.7,37.2,89.2,49.9,89.2,49.9z M120,61.3c0,13-12,12.9-12,12.9h-3.2v-7.3h2c5.8,0,5.2-6,5.2-6v-1.9c-2.6,3.3-7.2,3.1-7.2,3.1
		c-11.5,0-11.3-12.2-11.3-12.2c0-13.1,11.7-12.6,11.7-12.6c4.6,0,6.9,3.1,6.9,3.1V38h8V61.3z"/>
</g>
</svg>
