<?xml version="1.0" encoding="utf-8"?>
<!-- Generator: Adobe Illustrator 23.1.0, SVG Export Plug-In . SVG Version: 6.00 Build 0)  -->
<svg version="1.1" id="Layer_1" xmlns="http://www.w3.org/2000/svg" xmlns:xlink="http://www.w3.org/1999/xlink" x="0px" y="0px"
	 viewBox="0 0 51.5 36.3" style="enable-background:new 0 0 51.5 36.3;" xml:space="preserve">
<style type="text/css">
	.st0{fill:none;}
	.st1{fill:#FFFFFF;}
</style>
<rect y="0" class="st0" width="254" height="349"/>
<g id="그룹_258" transform="translate(-262.177 160)">
	<path id="사각형_108" class="st1" d="M262.7-159.6h42.5c1.9,0,3.5,1.6,3.5,3.5v0c0,1.9-1.6,3.5-3.5,3.5h-42.5l0,0V-159.6
		L262.7-159.6z"/>
	<path id="사각형_111" class="st1" d="M262.7-128.6h43.5c1.4,0,2.5,1.1,2.5,2.5v0c0,1.4-1.1,2.5-2.5,2.5h-43.5l0,0V-128.6
		L262.7-128.6z"/>
	<path id="사각형_110" class="st1" d="M267.7-144.6h43c1.7,0,3,1.3,3,3v0c0,1.7-1.3,3-3,3h-43l0,0V-144.6L267.7-144.6z"/>
</g>
</svg>
