<?xml version="1.0" encoding="utf-8"?>
<!-- Generator: Adobe Illustrator 23.1.0, SVG Export Plug-In . SVG Version: 6.00 Build 0)  -->
<svg version="1.1" id="Layer_1" xmlns="http://www.w3.org/2000/svg" xmlns:xlink="http://www.w3.org/1999/xlink" x="0px" y="0px"
	 viewBox="0 0 192.5 192.2" style="enable-background:new 0 0 192.5 192.2;" xml:space="preserve">
<style type="text/css">
	.st0{fill:#FFFFFF;}
	.st1{fill:#E8E8E8;}
	.st2{fill:none;stroke:#939393;stroke-width:4;stroke-miterlimit:10;}
	.st3{fill:#FCE4E6;}
	.st4{fill:none;stroke:#EE3742;stroke-width:4;stroke-miterlimit:10;}
</style>
<circle class="st0" cx="96.5" cy="96.2" r="96"/>
<g>
	<path class="st1" d="M46.7,40.5v111.4h97.9V40.5H46.7z M76.7,128.7H61.3v-15.4h15.4V128.7z M76.7,79.9H61.3V64.5h15.4V79.9z
		 M124.4,128.7H109v-15.4h15.4V128.7z M124.4,79.9H109V64.5h15.4V79.9z"/>
	<polyline class="st2" points="46.7,151.8 46.7,42.5 127.7,42.5 142.4,57.2 142.4,79.9 126.1,96.2 142.8,113 142.8,151.8 	"/>
	<line class="st2" x1="126.1" y1="96.2" x2="46.7" y2="96.2"/>
</g>
<g>
	<path class="st3" d="M46.7,40.5v111.4h97.9V40.5H46.7z M76.7,128.8H61.3v-15.4h15.4V128.8z M76.7,79.9H61.3V64.6h15.4V79.9z
		 M124.4,128.8H109v-15.4h15.4V128.8z M124.4,79.9H109V64.6h15.4V79.9z"/>
	<polyline class="st4" points="46.7,151.9 46.7,42.5 127.7,42.5 142.4,57.2 142.4,79.9 126.1,96.3 142.8,113 142.8,151.9 	"/>
	<line class="st4" x1="126.1" y1="96.3" x2="46.7" y2="96.3"/>
</g>
</svg>
