<?xml version="1.0" encoding="utf-8"?>
<!-- Generator: Adobe Illustrator 23.1.0, SVG Export Plug-In . SVG Version: 6.00 Build 0)  -->
<svg version="1.1" id="Layer_1" xmlns="http://www.w3.org/2000/svg" xmlns:xlink="http://www.w3.org/1999/xlink" x="0px" y="0px"
	 viewBox="0 0 192.5 192.2" style="enable-background:new 0 0 192.5 192.2;" xml:space="preserve">
<style type="text/css">
	.st0{fill:#FFFFFF;}
	.st1{fill:#E8E8E8;}
	.st2{fill:none;stroke:#939393;stroke-width:4;stroke-miterlimit:10;}
	.st3{fill:#FCE4E6;}
	.st4{fill:none;stroke:#EE3742;stroke-width:4;stroke-miterlimit:10;}
</style>
<circle class="st0" cx="96.5" cy="96.2" r="96"/>
<g>
	<path class="st1" d="M38.1,45.5V151h116.8V45.5H38.1z M76.5,122.8H60.6v-15.9h15.9V122.8z M76.5,83.2H60.6V67.3h15.9V83.2z
		 M132.7,122.8h-15.9v-15.9h15.9V122.8z M132.7,83.2h-15.9V67.3h15.9V83.2z"/>
	<polyline class="st2" points="38.7,151 38.7,45.5 154.8,45.5 154.8,151 	"/>
	<line class="st2" x1="96.8" y1="151" x2="96.8" y2="45.5"/>
</g>
<path class="st3" d="M38.1,45.5V151h116.8V45.5H38.1z M76.5,122.8H60.6v-15.9h15.9V122.8z M76.5,83.2H60.6V67.3h15.9V83.2z
	 M132.8,122.8h-15.9v-15.9h15.9V122.8z M132.8,83.2h-15.9V67.3h15.9V83.2z"/>
<polyline class="st4" points="38.7,151 38.7,45.5 154.9,45.5 154.9,151 "/>
<line class="st4" x1="96.8" y1="151" x2="96.8" y2="45.5"/>
</svg>
