<?xml version="1.0" encoding="utf-8"?>
<!-- Generator: Adobe Illustrator 23.1.0, SVG Export Plug-In . SVG Version: 6.00 Build 0)  -->
<svg version="1.1" id="Layer_1" xmlns="http://www.w3.org/2000/svg" xmlns:xlink="http://www.w3.org/1999/xlink" x="0px" y="0px"
	 viewBox="0 0 192.5 192.5" style="enable-background:new 0 0 192.5 192.5;" xml:space="preserve">
<style type="text/css">
	.st0{fill:#FFFFFF;}
	.st1{fill:none;stroke:#939292;stroke-width:4;stroke-miterlimit:10;}
	.st2{fill:#E8E7E7;}
	.st3{fill:none;stroke:#EE3742;stroke-width:4;stroke-miterlimit:10;}
	.st4{fill:#FCE4E6;}
</style>
<circle class="st0" cx="96.3" cy="96.7" r="96"/>
<g>
	<line class="st1" x1="52.5" y1="153.9" x2="140.1" y2="153.9"/>
	<path class="st2" d="M96.3,39.6c-10.8,0-43.8,2.1-43.8,42.6s43.8,71.1,43.8,71.1s43.8-30.6,43.8-71.1S107.1,39.6,96.3,39.6z
		 M104,92.1H88.5V76.5H104V92.1z"/>
	<g>
		<path class="st1" d="M96.3,153.3c0,0,43.8-30.6,43.8-71.1s-33-42.6-43.8-42.6s-43.8,2.1-43.8,42.6S96.3,153.3,96.3,153.3z"/>
	</g>
</g>
<g>
	<line class="st3" x1="52.5" y1="153.9" x2="140.1" y2="153.9"/>
	<path class="st4" d="M96.3,39.6c-10.8,0-43.8,2.1-43.8,42.6s43.8,71.1,43.8,71.1s43.8-30.6,43.8-71.1S107.1,39.6,96.3,39.6z
		 M104,92.1H88.5V76.5H104V92.1z"/>
	<g>
		<path class="st3" d="M96.3,153.3c0,0,43.8-30.6,43.8-71.1s-33-42.6-43.8-42.6s-43.8,2.1-43.8,42.6S96.3,153.3,96.3,153.3z"/>
	</g>
</g>
</svg>
