<?xml version="1.0" encoding="utf-8"?>
<!-- Generator: Adobe Illustrator 23.1.0, SVG Export Plug-In . SVG Version: 6.00 Build 0)  -->
<svg version="1.1" id="Layer_1" xmlns="http://www.w3.org/2000/svg" xmlns:xlink="http://www.w3.org/1999/xlink" x="0px" y="0px"
	 viewBox="0 0 192.5 192.2" style="enable-background:new 0 0 192.5 192.2;" xml:space="preserve">
<style type="text/css">
	.st0{fill:#FFFFFF;}
	.st1{fill:#E8E8E8;}
	.st2{fill:none;stroke:#939393;stroke-width:4;stroke-miterlimit:10;}
	.st3{fill:#FCE4E6;}
	.st4{fill:none;stroke:#EE3742;stroke-width:4;stroke-miterlimit:10;}
</style>
<circle class="st0" cx="96.5" cy="96.2" r="96"/>
<g>
	<path class="st1" d="M47.3,40.6v111h99.3v-111C146.6,40.6,47.3,40.6,47.3,40.6z M79.3,127.3H64.7v-14.5h14.6
		C79.3,112.8,79.3,127.3,79.3,127.3z M79.3,79.4H64.7V64.9h14.6C79.3,64.9,79.3,79.4,79.3,79.4z M127.3,127.3h-14.6v-14.5h14.6
		V127.3z M127.3,79.4h-14.6V64.9h14.6V79.4z"/>
	<line class="st2" x1="45.8" y1="40.6" x2="45.8" y2="151.6"/>
	<line class="st2" x1="146.6" y1="40.6" x2="146.6" y2="151.6"/>
	<line class="st2" x1="45.8" y1="96.1" x2="146.6" y2="96.1"/>
</g>
<g>
	<path class="st3" d="M47.3,40.6v111h99.3v-111H47.3z M79.3,127.3H64.7v-14.5h14.6V127.3z M79.3,79.5H64.7V64.9h14.6V79.5z
		 M127.3,127.3h-14.6v-14.5h14.6V127.3z M127.3,79.5h-14.6V64.9h14.6V79.5z"/>
	<line class="st4" x1="45.8" y1="40.6" x2="45.8" y2="151.6"/>
	<line class="st4" x1="146.6" y1="40.6" x2="146.6" y2="151.6"/>
	<line class="st4" x1="45.8" y1="96.1" x2="146.6" y2="96.1"/>
</g>
</svg>
