<?xml version="1.0" encoding="utf-8"?>
<!-- Generator: Adobe Illustrator 23.1.0, SVG Export Plug-In . SVG Version: 6.00 Build 0)  -->
<svg version="1.1" id="Layer_1" xmlns="http://www.w3.org/2000/svg" xmlns:xlink="http://www.w3.org/1999/xlink" x="0px" y="0px"
	 viewBox="0 0 192.5 192.2" style="enable-background:new 0 0 192.5 192.2;" xml:space="preserve">
<style type="text/css">
	.st0{fill:#FFFFFF;}
	.st1{fill:#E8E8E8;}
	.st2{fill:none;stroke:#939393;stroke-width:4;stroke-miterlimit:10;}
	.st3{fill:#FCE4E6;}
	.st4{fill:none;stroke:#EE3742;stroke-width:4;stroke-miterlimit:10;}
</style>
<circle class="st0" cx="96.5" cy="96.2" r="96"/>
<g>
	<path class="st1" d="M45.3,42.5v109.3h102V42.5H45.3z M78.1,128.7H62.8v-15.4h15.4L78.1,128.7L78.1,128.7z M78.1,79.9H62.8V64.5
		h15.4L78.1,79.9L78.1,79.9z M127,128.7h-15.4v-15.4H127V128.7z M127,79.9h-15.4V64.5H127V79.9z"/>
	<polyline class="st2" points="45.3,96 145.2,96 145.2,42.5 45.3,42.5 45.3,151.8 	"/>
</g>
<g>
	<path class="st3" d="M45.3,42.4v109.3h102V42.4H45.3z M78.2,128.7H62.8v-15.4h15.4V128.7z M78.2,79.9H62.8V64.5h15.4V79.9z
		 M127,128.7h-15.4v-15.4H127V128.7z M127,79.9h-15.4V64.5H127V79.9z"/>
	<polyline class="st4" points="45.3,96 145.2,96 145.2,42.4 45.3,42.4 45.3,151.8 	"/>
</g>
</svg>
