<?xml version="1.0" encoding="utf-8"?>
<!-- Generator: Adobe Illustrator 23.1.0, SVG Export Plug-In . SVG Version: 6.00 Build 0)  -->
<svg version="1.1" id="Layer_1" xmlns="http://www.w3.org/2000/svg" xmlns:xlink="http://www.w3.org/1999/xlink" x="0px" y="0px"
	 viewBox="0 0 134.7 134.6" style="enable-background:new 0 0 134.7 134.6;" xml:space="preserve">
<style type="text/css">
	.st0{fill:#FFFFFF;}
</style>
<g>
	<path class="st0" d="M67.3,45c-12.5,0-22.6,10.2-22.6,22.7c0,12.5,10.1,22.6,22.6,22.6S90,80.2,90,67.7S79.8,45,67.3,45z"/>
	<path class="st0" d="M95.8,0H38.9C17.4,0,0,17.4,0,38.9v56.9c0,21.5,17.4,38.9,38.9,38.9h56.9c21.5,0,38.9-17.4,38.9-38.9V38.9
		C134.7,17.4,117.3,0,95.8,0z M67.3,102.5c-19.3,0-34.9-15.6-34.9-34.9S48,32.7,67.3,32.7s35,15.7,35,34.9
		C102.3,86.9,86.6,102.5,67.3,102.5z M103.4,39.5c-4.4,0-8.1-3.6-8.1-8.1s3.6-8.1,8.1-8.1s8.2,3.6,8.1,8.1
		C111.5,35.9,107.9,39.5,103.4,39.5z"/>
</g>
</svg>
