<?xml version="1.0" encoding="utf-8"?>
<!-- Generator: Adobe Illustrator 23.1.0, SVG Export Plug-In . SVG Version: 6.00 Build 0)  -->
<svg version="1.1" id="Layer_1" xmlns="http://www.w3.org/2000/svg" xmlns:xlink="http://www.w3.org/1999/xlink" x="0px" y="0px"
	 viewBox="0 0 278.3 47.9" style="enable-background:new 0 0 278.3 47.9;" xml:space="preserve">
<style type="text/css">
	.st0{fill:#EF3742;}
</style>
<g>
	<path class="st0" d="M57.6,0.5c-3.9,0-7,3.1-7,7v1.9h-8.2C38.2,4,31.6,0.5,24.2,0.5C11.4,0.5,1,10.9,1,23.7
		c0,12.8,10.4,23.2,23.2,23.2c7.4,0,14-3.5,18.3-9h8.2v9h14V7.5C64.6,3.6,61.5,0.5,57.6,0.5z M24.2,33.5c-5.4,0-9.8-4.4-9.8-9.8
		c0-5.4,4.4-9.8,9.8-9.8c5.4,0,9.8,4.4,9.8,9.8C34,29.1,29.6,33.5,24.2,33.5z M47.1,26.9c0.1-1.1,0.2-2.1,0.2-3.2
		c0-1.1-0.1-2.2-0.2-3.3h3.5v6.5H47.1z"/>
	<path class="st0" d="M112.8,1.1c-3.9,0-7,3.1-7,7v38.8h13.9V8.1C119.8,4.2,116.7,1.1,112.8,1.1z"/>
	<path class="st0" d="M180.9,0.5L180.9,0.5c-3.9,0-7,3.1-7,7v9.7h-3.3c-2.8-9.6-11.7-16.7-22.2-16.7c-12.8,0-23.2,10.4-23.2,23.2
		c0,12.8,10.4,23.2,23.2,23.2c10.5,0,19.4-7,22.2-16.7h3.3v16.7h14V7.5C187.9,3.6,184.8,0.5,180.9,0.5z M148.4,33.5
		c-5.4,0-9.8-4.4-9.8-9.8c0-5.4,4.4-9.8,9.8-9.8c5.4,0,9.8,4.4,9.8,9.8C158.2,29.1,153.8,33.5,148.4,33.5z"/>
	<path class="st0" d="M92.1,0.7H73.9c-3.9,0-7,3.1-7,7c0,3.8,3.1,7,7,7h14.8v32.1h14V11.3C102.7,5.4,97.9,0.7,92.1,0.7z"/>
	<path class="st0" d="M190.8,14.3v20.5c0,6.7,5.4,12.1,12.1,12.1H226v-14h-3.7V15h3.7V1h-21.9C196.8,1,190.8,7,190.8,14.3z
		 M204.8,15h5.6v17.8h-5.6V15z"/>
	<path class="st0" d="M245.7,0.6c-8.8,0-15.9,7.1-15.9,15.9v30.3h13V16.5c0-1.6,1.3-2.9,2.9-2.9c1.2,0,2.2,1,2.2,2.2v31h13v-31
		C260.9,7.5,254.1,0.6,245.7,0.6z"/>
	<circle class="st0" cx="270.8" cy="40.1" r="6.8"/>
</g>
</svg>
