<?xml version="1.0" encoding="utf-8"?>
<!-- Generator: Adobe Illustrator 23.1.0, SVG Export Plug-In . SVG Version: 6.00 Build 0)  -->
<svg version="1.1" id="Layer_1" xmlns="http://www.w3.org/2000/svg" xmlns:xlink="http://www.w3.org/1999/xlink" x="0px" y="0px"
	 viewBox="0 0 131.9 199.7" style="enable-background:new 0 0 131.9 199.7;" xml:space="preserve">
<style type="text/css">
	.st0{fill:#FFFFFF;}
</style>
<g>
	<path class="st0" d="M69.6,8.7c29.4,0,53.3,23.9,53.3,53.3v75.5c0,29.4-23.9,53.3-53.3,53.3h-7.2c-29.4,0-53.3-23.9-53.3-53.3V62
		C9.1,32.6,33,8.7,62.4,8.7H69.6 M69.6,0.7h-7.2C28.5,0.7,1.1,28.1,1.1,62v75.5c0,33.8,27.4,61.3,61.3,61.3h7.2
		c33.8,0,61.3-27.4,61.3-61.3V62C130.9,28.1,103.5,0.7,69.6,0.7L69.6,0.7z"/>
</g>
</svg>
