<?xml version="1.0" encoding="utf-8"?>
<!-- Generator: Adobe Illustrator 23.1.0, SVG Export Plug-In . SVG Version: 6.00 Build 0)  -->
<svg version="1.1" id="Layer_1" xmlns="http://www.w3.org/2000/svg" xmlns:xlink="http://www.w3.org/1999/xlink" x="0px" y="0px"
	 viewBox="0 0 197.4 222.2" style="enable-background:new 0 0 197.4 222.2;" xml:space="preserve">
<style type="text/css">
	.st0{fill:#FFFFFF;}
</style>
<g>
	<path class="st0" d="M98,222c-28,0-56-0.3-83.9,0.2c-8.9,0.1-14.9-5.7-14-15.4c5.2-54.3,52.2-94.6,106.2-90.4
		c49,3.7,88.4,44.2,91.1,93.4c0.4,7.5-4.6,12.2-13.1,12.3C155.6,222,126.8,222,98,222z"/>
	<path class="st0" d="M48.3,50.3C48.6,22.2,71.5-0.3,99.3,0c27.4,0.3,50.1,23.5,49.8,51c-0.3,28.5-23,50.7-51.4,50.3
		C69.9,100.9,48.1,78.3,48.3,50.3z"/>
</g>
</svg>
