<?xml version="1.0" encoding="utf-8"?>
<!-- Generator: Adobe Illustrator 23.1.0, SVG Export Plug-In . SVG Version: 6.00 Build 0)  -->
<svg version="1.1" id="Layer_1" xmlns="http://www.w3.org/2000/svg" xmlns:xlink="http://www.w3.org/1999/xlink" x="0px" y="0px"
	 viewBox="0 0 231.6 222.2" style="enable-background:new 0 0 231.6 222.2;" xml:space="preserve">
<style type="text/css">
	.st0{fill:#555555;}
</style>
<path class="st0" d="M158.4,137.6c5.1,5.1,10,10.1,15.1,14.9c0.7,0.6,2.2,1,3.1,0.7c8.2-2.3,15.1,0,21,5.7
	c9.3,9.1,18.3,18.4,27.6,27.4c7.6,7.4,8.9,20.1,1.3,28.8c-7.4,8.6-21.6,9.5-29.7,1.5c-9.6-9.5-19.2-19.1-28.8-28.6
	c-4.9-4.9-6.4-10.9-6.2-17.6c0-1,0-2.3-0.6-3c-4.9-5.2-10-10.3-15.3-15.7c-23.2,20-49.6,26.8-79.1,20.1c-21-4.8-37.8-16.4-50.4-33.9
	C-9.3,102.4-4.3,53.2,27.8,23.4c32.7-30.3,82-31.3,116.3-2.1C176.7,49.1,185.1,98.8,158.4,137.6z M148.8,87.3
	C149,52.5,120,25.7,87.5,25.6c-32.6-0.1-61.6,26-62,61c-0.4,33.9,27.2,62.1,60.8,62.3C120.8,149.2,148.6,121.8,148.8,87.3z"/>
<path class="st0" d="M81.8,37.5c3.2-0.1,4.7,1.6,5.2,4.1c0.5,2.4-1.5,4.6-4.3,5.4c-3.6,1-7.3,1.7-10.7,3.3
	C63.3,54.5,57.2,61.1,53.7,70c-0.9,2.4-2.4,4.3-5.1,3.6c-1.6-0.4-3-1.8-4.1-3.1c-0.5-0.5-0.3-1.9-0.1-2.8C48.6,53,65.8,39,81.2,37.6
	C81.5,37.6,81.8,37.5,81.8,37.5z"/>
<path class="st0" d="M38.4,92.6c0.1-4.3,1.5-6.3,4.7-6.4c2.6-0.1,4.3,1.2,4.8,3.7c0.5,2.4,0.6,4.8,0.7,7.3c0.1,2.9-1.5,4.8-4.2,5.1
	c-2.7,0.3-4.7-1.1-5.1-4C38.9,96.4,38.7,94.5,38.4,92.6z"/>
</svg>
