<?xml version="1.0" encoding="utf-8"?>
<!-- Generator: Adobe Illustrator 23.1.0, SVG Export Plug-In . SVG Version: 6.00 Build 0)  -->
<svg version="1.1" id="Layer_1" xmlns="http://www.w3.org/2000/svg" xmlns:xlink="http://www.w3.org/1999/xlink" x="0px" y="0px"
	 viewBox="0 0 189.9 134.6" style="enable-background:new 0 0 189.9 134.6;" xml:space="preserve">
<style type="text/css">
	.st0{fill:#FFFFFF;}
</style>
<path class="st0" d="M187,24.5C183.4,10,176.6,4.4,164.1,2.4C156.9,1.4,122.4,0,94.9,0C67.5,0,33,1.4,25.8,2.4
	C13.3,4.4,6.5,10,2.9,24.5C1.7,29.4,0,56,0,66.2v2.2c0,10.2,1.7,36.8,2.9,41.7c3.6,14.5,10.4,20.1,22.9,22.1
	c7.2,1.1,41.8,2.4,69.2,2.4l-0.1,0c27.5,0,62-1.4,69.2-2.4c12.5-2,19.3-7.6,22.9-22.1c1.2-4.9,2.9-31.5,2.9-41.7v-2.2
	C189.9,56,188.2,29.4,187,24.5z M72.2,91.7V43l45.5,23.8L72.2,91.7z"/>
</svg>
